PathFileType	4	(X/Y/Z)	./resultDataOpenSim/trcMotMarkerGrf/sub09/qtm-03-02.trc
DataRate	CameraRate	NumFrames	NumMarkers	Units	OrigDataRate	OrigDataStartFrame	OrigNumFrames
250.000000	250.000000	6	24	m	250.000000	1	496
Frame#	Time	L.Toe.Tip			R.Toe.Tip			L.Ankle.Lat			R.Ankle.Lat			L.Ankle.Med			R.Ankle.Med			L.Heel			R.Heel			L.Knee.Lat			R.Knee.Lat			L.Knee.Med			R.Knee.Med			L.Thigh.Upper			R.Thigh.Upper			L.ASIS			R.ASIS			V.Sacral			L.Acromium			R.Acromium			C7			L.Elbow			R.Elbow			L.Wrist.Lat			R.Wrist.Lat
		X1	Y1	Z1	X2	Y2	Z2	X3	Y3	Z3	X4	Y4	Z4	X5	Y5	Z5	X6	Y6	Z6	X7	Y7	Z7	X8	Y8	Z8	X9	Y9	Z9	X10	Y10	Z10	X11	Y11	Z11	X12	Y12	Z12	X13	Y13	Z13	X14	Y14	Z14	X15	Y15	Z15	X16	Y16	Z16	X17	Y17	Z17	X18	Y18	Z18	X19	Y19	Z19	X20	Y20	Z20	X21	Y21	Z21	X22	Y22	Z22	X23	Y23	Z23	X24	Y24	Z24

1	0	-1.5235614	0.037060676	-0.02757999	-0.98806016	0.079598899	0.10591295	-1.6729533	0.078658923	-0.06454991	-1.1385254	0.067619878	0.12691073	-1.6439178	0.09656598	0.027975283	-1.1257964	0.10797781	0.037441605	NaN	NaN	NaN	-1.1903972	0.032499345	0.067930432	-1.5270148	0.47051439	-0.12321046	-1.1956495	0.52298716	0.17246901	-1.5263297	0.47144649	0.0036894482	-1.1927611	0.50433818	0.045390618	-1.4265744	0.8803403	-0.16329396	-1.3965511	0.87651653	0.20526514	-1.3221766	0.95320881	-0.11226753	-1.3138197	0.95989089	0.12860575	-1.4812739	1.0194806	0.02006866	-1.2923967	1.4103928	-0.15345262	-1.3252688	1.4181463	0.17312916	-1.3695026	1.4672736	0.0055164019	-1.3881279	1.0460423	-0.22718993	NaN	NaN	NaN	-1.1458701	0.92117005	-0.20532097	-1.4035739	0.83861326	0.28405664
2	0.004	-1.5234553	0.036957435	-0.027634093	-0.97126359	0.083311971	0.10644897	-1.6727709	0.079400065	-0.064337721	-1.121626	0.067819451	0.12695441	-1.6457432	0.096514609	0.029200566	-1.1098506	0.10842483	0.037464939	NaN	NaN	NaN	-1.1724335	0.031632863	0.067861381	-1.5244299	0.47047856	-0.12310138	-1.1910677	0.52133438	0.17221008	-1.5233241	0.47146186	0.0037085539	-1.1865259	0.50308443	0.045268308	-1.4211827	0.87936063	-0.16319205	-1.3908391	0.87522023	0.20537868	-1.3165092	0.95203419	-0.11225034	-1.3079651	0.95863853	0.1287157	-1.4752823	1.0180288	0.020299918	-1.2867896	1.4093483	-0.15313917	-1.3199832	1.4168023	0.17349906	-1.3639256	1.4660876	0.006456402	-1.3809965	1.0445269	-0.22742915	NaN	NaN	NaN	-1.1376257	0.92197628	-0.20461142	-1.397785	0.83728905	0.28488105
3	0.008	-1.5233622	0.036881996	-0.027679704	-0.95456372	0.087188559	0.10694944	-1.6725554	0.080169949	-0.06414748	-1.1049703	0.068115078	0.1269753	-1.6471839	0.09659565	0.030220549	-1.0940658	0.10899488	0.037505533	NaN	NaN	NaN	-1.1548281	0.030877546	0.067507147	-1.521736	0.4704439	-0.12302073	-1.1869818	0.5195829	0.17181415	-1.5204096	0.47144607	0.003743548	-1.1803142	0.50182318	0.04513879	-1.4157655	0.87836828	-0.16309696	-1.3851201	0.87386704	0.2054943	-1.3108315	0.95089047	-0.11223766	-1.3020457	0.95736168	0.12880651	-1.4693699	1.0166024	0.020381965	-1.2811391	1.4082876	-0.15279361	-1.3146329	1.4154519	0.17386063	-1.3584445	1.4649123	0.0072023529	-1.3738834	1.0430392	-0.22772294	NaN	NaN	NaN	-1.1293844	0.92275339	-0.20389825	-1.3919778	0.835942	0.2856989
4	0.012	-1.5232817	0.036836628	-0.027718141	-0.93812247	0.091280857	0.10744587	-1.6722913	0.080973657	-0.064001664	-1.0886704	0.068562115	0.12695578	-1.6476493	0.097013738	0.030736294	-1.0785015	0.10976473	0.037562265	NaN	NaN	NaN	-1.1378219	0.03034498	0.066644847	-1.5188671	0.47041155	-0.12296421	-1.1832256	0.51774758	0.17133577	-1.5175117	0.47140068	0.0037881395	-1.17414	0.50054308	0.045008722	-1.4102992	0.87736373	-0.16300009	-1.3793266	0.8724546	0.20561804	-1.3051289	0.94978354	-0.11222584	-1.2960437	0.95606338	0.12888239	-1.4635968	1.0151886	0.020187237	-1.2754176	1.4071998	-0.15241721	-1.3092044	1.4140906	0.17421684	-1.3530206	1.4637534	0.0077328517	-1.3667788	1.0415945	-0.22806165	NaN	NaN	NaN	-1.121162	0.9234785	-0.20318597	-1.3861205	0.83457299	0.28651298
5	0.016	-1.5232058	0.036806149	-0.027755679	-0.92218405	0.095527902	0.10796197	-1.6719807	0.081809876	-0.063920426	-1.072768	0.069159516	0.12689594	-1.6469871	0.097829556	0.030678473	-1.0632101	0.11072869	0.037620007	NaN	NaN	NaN	-1.1213545	0.030026805	0.065469434	-1.5158362	0.47037454	-0.12292933	-1.1791616	0.51594072	0.17095971	-1.5145222	0.4713437	0.0038320144	-1.1680218	0.49923778	0.044888987	-1.404782	0.87635432	-0.16288293	-1.3733868	0.87101243	0.20574903	-1.2993996	0.94869896	-0.11220803	-1.2899842	0.95477043	0.12896069	-1.4579347	1.013764	0.01979468	-1.269631	1.4060925	-0.15203351	-1.3037155	1.4127215	0.17457612	-1.3475445	1.462608	0.0081380597	-1.3596643	1.0401744	-0.22837068	NaN	NaN	NaN	-1.1129938	0.92413743	-0.20249152	-1.3801922	0.83319609	0.2873234
6	0.02	-1.5231278	0.036779452	-0.027796056	-0.9069213	0.099854081	0.10845177	-1.67163	0.082688442	-0.063915458	-1.0572553	0.069885224	0.12682055	-1.6456567	0.098894126	0.030277805	-1.0482595	0.11183242	0.037664122	NaN	NaN	NaN	-1.1049571	0.029730253	0.064768016	-1.5126879	0.47031541	-0.12293744	-1.1743797	0.51423936	0.17079175	-1.511421	0.47128114	0.0038825337	-1.1619667	0.49790565	0.04478378	-1.3992199	0.87534376	-0.16272811	-1.3672815	0.86955315	0.20588165	-1.2936358	0.94762065	-0.11218175	-1.2838782	0.95349483	0.12904977	-1.4522534	1.0123249	0.019489928	-1.2637926	1.4049881	-0.151653	-1.2981683	1.4113526	0.1749455	-1.3419594	1.461469	0.0084917902	-1.3525108	1.0387338	-0.22855532	NaN	NaN	NaN	-1.1048931	0.92472792	-0.20182379	-1.3741706	0.83181887	0.28812006
